<svg width="1463" height="1111" viewBox="0 0 1463 1111" fill="none" xmlns="http://www.w3.org/2000/svg">
<path d="M610.565 308.067C775.964 227.397 939.187 183.634 1069 177.608C1133.94 174.594 1189.77 181.058 1233.13 196.476C1276.4 211.863 1306.28 235.763 1321.62 267.226C1336.97 298.688 1337.41 336.946 1322.9 380.517C1308.35 424.176 1279.07 472.152 1236.72 521.467C1152.04 620.056 1017.07 721.734 851.669 802.404C686.271 883.074 523.048 926.838 393.23 932.863C328.293 935.877 272.461 929.414 229.102 913.995C185.831 898.608 155.955 874.708 140.61 843.246C125.264 811.783 124.824 773.526 139.339 729.955C153.884 686.295 183.164 638.319 225.518 589.004C310.191 490.416 445.166 388.738 610.565 308.067Z" stroke="#16A34A" stroke-width="30"/>
<path d="M664.588 288.404C843.145 243.885 1011.9 235.014 1140.13 256.111C1204.28 266.664 1257.55 284.594 1296.75 308.691C1335.88 332.738 1360.13 362.328 1368.6 396.293C1377.07 430.258 1369.55 467.771 1346.29 507.372C1322.99 547.054 1284.37 587.894 1232.69 627.325C1129.37 706.155 976.202 777.548 797.646 822.067C619.089 866.586 450.334 875.457 322.1 854.36C257.956 843.807 204.687 825.877 165.481 801.781C126.356 777.733 102.101 748.144 93.6327 714.178C85.1642 680.213 92.6881 642.7 115.944 603.099C139.249 563.417 177.864 522.578 229.546 483.146C332.866 404.317 486.032 332.923 664.588 288.404Z" stroke="#16A34A" stroke-width="30"/>
</svg>
